# xmcd
#
# Track frame offsets:
#	150
#	16908
#	33241
#	49982
#	63128
#	76991
#	95701
#	113623
#	130951
#	151534
#	164004
#	183572
#
# Disc length: 2722 seconds
#
# Revision: 0
# Processed by: cddbd v1.5.2PL0 Copyright (c) Steve Scherf et al.
# Submitted via: EasyCDDAExtractor 10.0.2.1
#
DISCID=910aa00c
DTITLE=Dwight Yoakam - 3 Pears
DYEAR=2012
DGENRE=Country
TTITLE0=Take Hold of My Hand
TTITLE1=Waterfall
TTITLE2=Dim Lights, Thick Smoke
TTITLE3=Trying
TTITLE4=Nothing But Love
TTITLE5=It's Never Alright
TTITLE6=A Heart Like Mine
TTITLE7=Long Way to Go
TTITLE8=Missing Heart
TTITLE9=3 Pears
TTITLE10=Rock It All Away
TTITLE11=Long Way to Go (Reprise)
EXTD=
EXTT0=
EXTT1=
EXTT2=
EXTT3=
EXTT4=
EXTT5=
EXTT6=
EXTT7=
EXTT8=
EXTT9=
EXTT10=
EXTT11=
PLAYORDER=
